# xmcd
# Copyright (C) 1995-1998 Ti Kan
#
# Track frame offsets:
#       150
#       17810
#       36685
#       57600
#       77872
#       94275
#       110625
#       129192
#       149947
#       171660
#       187202
#
# Disc length: 2762 seconds
#
# Revision: 2
# Processed by: cddbd v1.4PL0 Copyright (c) Steve Scherf et al.
# Submitted via: CD-Transfer v1.0
#
DISCID=b50ac80b
DTITLE=Loop - Public Exposure
DYEAR=2003
DGENRE=
TTITLE0=You And Me
TTITLE1=My Love
TTITLE2=Never Mind
TTITLE3=I Fell For You
TTITLE4=One Of Those Things
TTITLE5=Now I'm Ready
TTITLE6=Until We Meet Again
TTITLE7=Goin' Greyhound
TTITLE8=Voodoo Doctor
TTITLE9=Wah Duh I Duh
TTITLE10=Crazy And It's True
EXTD=
EXTT0=
EXTT1=
EXTT2=
EXTT3=
EXTT4=
EXTT5=
EXTT6=
EXTT7=
EXTT8=
EXTT9=
EXTT10=
PLAYORDER=
